<svg width="24" height="24" viewBox="0 0 24 24" fill="none" xmlns="http://www.w3.org/2000/svg">
<g clip-path="url(#clip0_28_945)">
<path d="M20 17.58C21.0512 17.1195 21.9121 16.3115 22.4381 15.2915C22.964 14.2715 23.1231 13.1016 22.8886 11.9781C22.654 10.8547 22.0402 9.84617 21.15 9.12179C20.2599 8.39742 19.1476 8.00131 18 7.99996H16.74C16.423 6.77248 15.8188 5.63791 14.9773 4.68976C14.1357 3.74161 13.0809 3.00703 11.8997 2.54658C10.7186 2.08612 9.44488 1.91297 8.18365 2.0414C6.92243 2.16983 5.70978 2.59615 4.64567 3.28524C3.58155 3.97433 2.69644 4.90644 2.06328 6.00475C1.43012 7.10307 1.06704 8.33613 1.00398 9.60231C0.940923 10.8685 1.17968 12.1315 1.70058 13.2873C2.22147 14.4431 3.00959 15.4585 3.99997 16.25" stroke="#E9A722" stroke-width="2" stroke-linecap="round" stroke-linejoin="round"/>
<path d="M8 16H8.01" stroke="#E9A722" stroke-width="2" stroke-linecap="round" stroke-linejoin="round"/>
<path d="M8 20H8.01" stroke="#E9A722" stroke-width="2" stroke-linecap="round" stroke-linejoin="round"/>
<path d="M12 18H12.01" stroke="#E9A722" stroke-width="2" stroke-linecap="round" stroke-linejoin="round"/>
<path d="M12 22H12.01" stroke="#E9A722" stroke-width="2" stroke-linecap="round" stroke-linejoin="round"/>
<path d="M16 16H16.01" stroke="#E9A722" stroke-width="2" stroke-linecap="round" stroke-linejoin="round"/>
<path d="M16 20H16.01" stroke="#E9A722" stroke-width="2" stroke-linecap="round" stroke-linejoin="round"/>
</g>
<defs>
<clipPath id="clip0_28_945">
<rect width="24" height="24" fill="white"/>
</clipPath>
</defs>
</svg>
