<svg width="212" height="66" viewBox="0 0 212 66" fill="none" xmlns="http://www.w3.org/2000/svg">
<g clip-path="url(#clip0_174_602)">
<path d="M24.8263 57.8596V64.7575H26.9433V65.5633H23.9747V57.8884L24.8263 57.8596ZM33.3134 62.5701C33.3134 63.2129 33.3134 63.9132 33.9245 64.4313C34.2859 64.7169 34.7335 64.8723 35.1947 64.8723C35.6558 64.8723 36.1034 64.7169 36.4648 64.4313C37.0759 63.9132 37.0759 63.2129 37.0759 62.5701V57.8596H37.9323V62.8004C37.9779 63.4503 37.8089 64.0972 37.4512 64.6423C37.1734 64.9672 36.8282 65.2281 36.4394 65.4069C36.0507 65.5858 35.6276 65.6785 35.1995 65.6785C34.7713 65.6785 34.3483 65.5858 33.9595 65.4069C33.5708 65.2281 33.2256 64.9672 32.9478 64.6423C32.588 64.0981 32.4189 63.4505 32.4667 62.8004V57.8596H33.3231L33.3134 62.5701ZM45.8228 61.5676L43.7588 57.8596H44.721L46.3184 60.7377L47.9542 57.8596H48.9165L46.8043 61.5676L49.0319 65.5394H48.0697L46.3039 62.383L44.5141 65.5394H43.5519L45.8228 61.5676ZM55.5561 62.5701C55.5561 63.2129 55.5561 63.9132 56.1671 64.4313C56.5292 64.7173 56.9777 64.8729 57.4397 64.8729C57.9017 64.8729 58.3501 64.7173 58.7123 64.4313C59.3233 63.9132 59.3233 63.2129 59.3233 62.5701V57.8596H60.1749V62.8004C60.2209 63.4503 60.0519 64.0973 59.6938 64.6423C59.4155 64.9673 59.0699 65.2282 58.6808 65.4071C58.2916 65.586 57.8682 65.6787 57.4397 65.6787C57.0111 65.6787 56.5877 65.586 56.1986 65.4071C55.8094 65.2282 55.4638 64.9673 55.1856 64.6423C54.8275 64.0973 54.6585 63.4503 54.7045 62.8004V57.8596H55.5561V62.5701ZM68.0173 57.8596C68.6695 57.8178 69.3198 57.9662 69.8889 58.2865C70.2368 58.5454 70.4976 58.9036 70.6366 59.3136C70.7757 59.7236 70.7864 60.1661 70.6674 60.5823C70.5484 60.9986 70.3053 61.3689 69.9704 61.6442C69.6354 61.9196 69.2244 62.0869 68.7919 62.124L71.2361 65.5538H70.1968L67.8537 62.196H67.6372V65.5538H66.7808V57.8788L68.0173 57.8596ZM67.6372 61.4189H68.1761C69.2394 61.4189 69.8745 60.9104 69.8745 60.0134C69.8917 59.7869 69.8433 59.5602 69.735 59.3603C69.6266 59.1604 69.463 58.9958 69.2634 58.8861C68.9202 58.7174 68.5387 58.6413 68.1568 58.6655H67.6372V61.4189ZM78.4915 62.2343L75.9607 57.8596H76.9519L78.9149 61.2893L80.9019 57.8596H81.8979L79.3431 62.2343V65.5394H78.4915V62.2343ZM100.797 59.5529C100.506 59.2604 100.167 59.0188 99.7959 58.8382C99.3786 58.6487 98.9265 58.5474 98.468 58.5407C97.6258 58.5407 96.8181 58.8743 96.2226 59.468C95.6271 60.0618 95.2925 60.867 95.2925 61.7067C95.2925 62.5463 95.6271 63.3516 96.2226 63.9453C96.8181 64.539 97.6258 64.8726 98.468 64.8726C98.9707 64.8665 99.465 64.7433 99.9114 64.5128C100.24 64.3488 100.539 64.1316 100.797 63.8701V64.9302C100.12 65.4136 99.3098 65.6751 98.4776 65.6785C97.9544 65.6753 97.437 65.5695 96.9549 65.367C96.4728 65.1644 96.0354 64.8692 95.6677 64.4982C95.3 64.1272 95.0092 63.6875 94.8119 63.2045C94.6147 62.7214 94.5147 62.2043 94.5179 61.6827C94.5211 61.1611 94.6272 60.6452 94.8303 60.1646C95.0335 59.6839 95.3296 59.2478 95.7017 58.8812C96.0739 58.5146 96.5148 58.2247 96.9994 58.028C97.4839 57.8313 98.0025 57.7317 98.5257 57.7349C99.3469 57.7239 100.148 57.9911 100.797 58.4928V59.5529ZM111.333 63.3904H108.052L107.128 65.5538H106.166L109.698 57.4902L113.152 65.5394H112.19L111.333 63.3904ZM110.997 62.5845L109.698 59.4809L108.384 62.5557L110.997 62.5845ZM120.104 57.874C120.755 57.8332 121.403 57.9815 121.971 58.3009C122.243 58.4925 122.463 58.7484 122.61 59.0457C122.758 59.3429 122.83 59.6722 122.818 60.0038C122.832 60.2691 122.793 60.5344 122.703 60.7846C122.614 61.0349 122.476 61.265 122.297 61.462C122.118 61.6589 121.902 61.8188 121.661 61.9324C121.42 62.046 121.16 62.1111 120.893 62.124L123.342 65.5538H122.303L119.96 62.196H119.739V65.5538H118.839V57.8788L120.104 57.874ZM119.719 61.4333H120.263C121.326 61.4333 121.962 60.9248 121.962 60.0278C121.979 59.8012 121.93 59.5745 121.822 59.3747C121.714 59.1748 121.55 59.0102 121.35 58.9005C121.007 58.7318 120.626 58.6557 120.244 58.6799H119.719V61.4333ZM140.009 59.3802C139.896 59.1612 139.743 58.9658 139.556 58.8046C139.306 58.6217 139.001 58.5288 138.69 58.5407C138.526 58.5253 138.36 58.5445 138.203 58.5972C138.046 58.6499 137.902 58.7348 137.781 58.8466C137.659 58.9583 137.562 59.0944 137.497 59.2458C137.432 59.3972 137.399 59.5607 137.401 59.7256C137.393 59.8516 137.414 59.9777 137.465 60.0937C137.515 60.2096 137.592 60.312 137.69 60.3923C137.927 60.6005 138.201 60.7631 138.498 60.872L139.234 61.1934C139.673 61.3596 140.078 61.6051 140.427 61.9177C140.612 62.0994 140.756 62.3173 140.851 62.5576C140.947 62.7979 140.991 63.0554 140.981 63.3136C140.96 63.7795 140.808 64.23 140.541 64.6131C140.275 64.9961 139.905 65.2959 139.474 65.4777C139.043 65.6595 138.57 65.7158 138.108 65.6401C137.647 65.5644 137.216 65.3599 136.867 65.0501C136.506 64.6726 136.258 64.2026 136.15 63.6926L136.982 63.4623C137.043 63.8228 137.211 64.1569 137.463 64.4217C137.609 64.5652 137.783 64.6771 137.975 64.7506C138.166 64.824 138.37 64.8574 138.575 64.8486C138.78 64.8633 138.986 64.8342 139.178 64.7633C139.371 64.6923 139.546 64.5811 139.693 64.4372C139.839 64.2932 139.953 64.1198 140.026 63.9285C140.1 63.7373 140.132 63.5325 140.119 63.328C140.127 63.1597 140.097 62.9919 140.031 62.8367C139.965 62.6815 139.866 62.5429 139.739 62.431C139.462 62.2046 139.15 62.0247 138.815 61.8985L138.123 61.5772C137.744 61.4288 137.396 61.2143 137.093 60.944C136.918 60.786 136.78 60.5915 136.688 60.3743C136.597 60.1571 136.554 59.9225 136.564 59.6872C136.564 58.5024 137.478 57.7109 138.724 57.7109C139.162 57.694 139.595 57.8148 139.961 58.0563C140.276 58.2745 140.534 58.5659 140.711 58.9053L140.009 59.3802ZM151.128 58.6655H147.986V60.944H151.075V61.7498H148.024V64.7575H151.166V65.5633H147.173V57.8884H151.166L151.128 58.6655ZM158.542 57.8596C159.194 57.8178 159.844 57.9662 160.413 58.2865C160.761 58.5454 161.022 58.9036 161.161 59.3136C161.3 59.7236 161.311 60.1661 161.192 60.5823C161.073 60.9986 160.83 61.3689 160.495 61.6442C160.16 61.9196 159.749 62.0869 159.316 62.124L161.765 65.5538H160.726L158.383 62.196H158.162V65.5538H157.329V57.8788L158.542 57.8596ZM158.162 61.4189H158.705C159.769 61.4189 160.404 60.9104 160.404 60.0134C160.42 59.787 160.371 59.5608 160.263 59.3611C160.154 59.1615 159.991 58.9967 159.793 58.8861C159.448 58.717 159.065 58.6409 158.681 58.6655H158.162V61.4189ZM167.529 57.8596L169.699 63.7214L171.869 57.8596H172.831L169.714 66.0143L166.596 57.8596H167.529ZM179.355 57.8596V65.5346H178.499V57.8596H179.355ZM191.865 59.5529C191.571 59.2615 191.231 59.02 190.859 58.8382C190.442 58.6487 189.99 58.5474 189.531 58.5407C188.689 58.5407 187.881 58.8743 187.286 59.468C186.69 60.0618 186.356 60.867 186.356 61.7067C186.356 62.5463 186.69 63.3516 187.286 63.9453C187.881 64.539 188.689 64.8726 189.531 64.8726C190.034 64.8665 190.528 64.7433 190.975 64.5128C191.304 64.3472 191.604 64.1302 191.865 63.8701V64.9302C191.187 65.4134 190.375 65.6749 189.541 65.6785C188.484 65.6721 187.474 65.2476 186.731 64.4982C185.988 63.7488 185.575 62.7361 185.581 61.6827C185.588 60.6293 186.013 59.6216 186.765 58.8812C187.517 58.1409 188.532 57.7285 189.589 57.7349C190.412 57.7236 191.214 57.9908 191.865 58.4928V59.5529ZM202.108 58.6655H198.966V60.944H202.017V61.7498H198.966V64.7575H202.108V65.5633H198.115V57.8884H202.108V58.6655Z" fill="url(#paint0_linear_174_602)"/>
<path d="M28.1413 30.3449C21.4487 34.0721 17.2533 38.9793 17.2533 43.2965C17.2533 45.8436 19.7455 47.7431 24.6001 47.7431C43.292 47.7431 67.1705 30.4745 67.1705 12.0353C67.1705 7.12813 64.938 1.17523 49.7873 1.17523C28.9929 1.17523 4.003 16.1558 4.003 28.383C4.003 30.0188 4.85459 31.194 6.40864 31.194C13.4716 31.1796 27.3522 21.7106 31.615 12.8844C31.8123 12.491 31.8796 12.4047 32.0095 12.4047C32.1125 12.4326 32.202 12.4963 32.262 12.5843C32.322 12.6722 32.3485 12.7787 32.3367 12.8844C32.2748 13.1833 32.1643 13.4701 32.0095 13.7334C27.3522 22.953 15.4827 32.3069 7.54411 32.3069C4.26281 32.3069 0 30.3449 0 27.4668C0 14.6496 27.1549 0 48.4738 0C64.8755 0 71.3659 7.39196 71.3659 15.043C71.3659 31.9135 44.0137 48.525 24.6001 48.525C18.8266 48.525 13.8421 45.9779 13.8421 42.1836C13.8421 37.214 20.3325 31.6305 29.1901 27.9273C34.242 16.5444 44.8028 3.27146 47.6895 3.27146C48.4112 3.27146 49.8546 5.4924 49.8546 6.27909C49.8546 6.67243 49.59 6.99862 48.9982 7.32481C44.3409 10.2029 36.9315 18.3096 32.3367 26.7473C37.7297 24.824 43.4057 23.8076 49.1329 23.7397C55.7581 23.7397 57.5286 24.8525 57.5286 25.3082C57.5286 25.5049 57.4613 25.5721 57.3939 25.5721C55.3886 24.8589 53.2673 24.5254 51.1392 24.5887C44.2978 24.6024 37.5336 26.0299 31.2734 28.7812C29.5028 32.4412 28.3866 36.1683 28.3866 39.5069C28.3866 40.0298 28.3241 40.1593 28.0595 40.1593C27.7948 40.1593 26.3563 39.4398 26.3563 38.2646C26.3707 36.034 27.025 33.2902 28.1413 30.3449ZM74.7771 28.7092C73.2038 28.0568 71.236 27.2702 71.236 25.7687C71.236 23.3703 74.1853 21.1877 75.6961 21.1877C76.615 21.1877 78.1883 22.4973 78.1883 22.953C78.1883 24.1954 77.0721 26.1621 75.6961 28.4502C77.7264 29.4095 81.0751 30.0188 81.0751 31.7168C81.0751 34.2016 76.5477 37.7369 76.5477 40.2217C76.5279 40.4148 76.5494 40.6099 76.6109 40.7941C76.6724 40.9783 76.7724 41.1474 76.9042 41.2902C77.0361 41.4331 77.1969 41.5463 77.376 41.6226C77.555 41.6989 77.7483 41.7364 77.9429 41.7327C80.3486 41.7327 87.2576 34.9307 87.2576 34.9307C87.3923 34.8012 87.5222 34.6717 87.5896 34.6717C87.7868 34.6717 87.8494 34.8684 87.8494 34.9979C87.8494 35.1274 87.5222 35.4776 87.2576 35.7174C87.2576 35.7174 80.3727 42.8456 77.1539 42.8456C75.1861 42.8456 73.0883 41.1475 73.0883 39.3151C73.0883 35.4776 76.5621 32.3164 76.5621 30.2874C76.5621 29.7022 76.0377 29.328 75.3833 28.9826C73.2808 32.9065 69.5424 38.7922 66.4632 41.3441C65.7415 41.9294 64.6878 42.5865 63.639 42.5865C63.1578 42.5865 62.72 42.5194 62.72 42.3227C62.72 42.126 63.3118 41.1475 63.5091 41.1475C63.7484 41.1805 63.9893 41.2013 64.2308 41.2098C66.8385 41.2002 72.8093 32.4364 74.7771 28.7092ZM76.7449 23.0249C76.1531 23.0249 74.1853 24.3968 74.1853 26.7521C74.1853 27.3421 74.5799 27.7978 75.1716 28.1911C76.2205 26.2292 77.1395 24.2002 77.1395 23.3511C77.1297 23.256 77.0829 23.1686 77.0091 23.1076C76.9353 23.0466 76.8405 23.0169 76.7449 23.0249ZM95.7014 28.5845C95.7014 29.7597 88.2247 38.1782 88.2247 41.0084C88.2001 41.1542 88.2098 41.3036 88.2527 41.4451C88.2957 41.5866 88.3709 41.7163 88.4724 41.824C88.574 41.9317 88.6991 42.0146 88.8381 42.0662C88.977 42.1177 89.1261 42.1366 89.2735 42.1212C93.0119 42.1212 100.619 34.9259 100.619 34.9259C100.619 34.9259 100.883 34.6669 101.1 34.6669C101.316 34.6669 101.36 34.8636 101.36 34.9259C101.36 35.0602 100.835 35.516 100.638 35.7126C100.638 35.7126 92.6366 43.3876 88.3738 43.3876C87.325 43.3876 85.2224 41.8862 85.2224 39.79C85.2224 36.9118 90.9334 29.6542 92.1796 26.5794C92.3768 26.1909 92.6366 25.927 92.9638 25.927C94.258 25.903 95.7014 27.3997 95.7014 28.5797V28.5845ZM102.197 17.2063C101.976 18.0343 101.491 18.7682 100.816 19.2978C100.216 19.5456 99.6043 19.7633 98.9827 19.9501C97.7318 20.3435 97.3421 21.063 97.0582 21.063C97.0059 21.065 96.9537 21.0562 96.9049 21.0372C96.8561 21.0181 96.8118 20.9892 96.7747 20.9523C96.7377 20.9154 96.7087 20.8712 96.6896 20.8226C96.6705 20.7739 96.6617 20.7219 96.6637 20.6697C96.6637 19.1011 99.1559 15.8296 99.1559 14.2611C99.1529 14.2259 99.1577 14.1904 99.17 14.1573C99.1823 14.1242 99.2018 14.0942 99.2271 14.0694C99.2524 14.0447 99.2828 14.0258 99.3163 14.0142C99.3497 14.0025 99.3853 13.9984 99.4206 14.002C100.489 13.9972 102.197 16.3093 102.197 17.2015V17.2063ZM104.164 26.7521C105.127 26.7521 106.849 28.124 106.849 29.894C106.849 32.5083 102.038 39.4398 102.038 42.0589C102.036 42.1022 102.043 42.1456 102.059 42.1861C102.074 42.2266 102.098 42.2634 102.129 42.2941C102.16 42.3248 102.197 42.3487 102.237 42.3644C102.278 42.3801 102.322 42.3871 102.365 42.3851C104.333 42.3851 114.437 33.6836 114.437 26.0997C114.437 24.9868 114.042 24.3968 114.042 23.9411C114.042 23.7445 114.109 23.6773 114.307 23.6773C114.788 23.6773 116.337 25.313 116.337 27.2126C116.337 34.7341 103.679 43.6274 101.711 43.6274C100.859 43.6274 98.8913 42.1212 98.8913 40.8788C98.8913 37.7417 103.611 29.9564 103.611 27.2126C103.635 26.8624 103.77 26.7473 104.164 26.7473V26.7521ZM125.873 39.1136C126.2 38.7874 126.397 38.5907 126.527 38.5907C126.596 38.5941 126.66 38.6223 126.709 38.6701C126.758 38.7178 126.787 38.7818 126.792 38.8498C126.792 39.0464 126.595 39.3774 126.138 39.8091C124.824 41.1187 123.313 42.7544 120.624 42.7544C117.934 42.7544 115.51 40.6582 115.51 37.2572C115.51 31.3715 121.413 25.2267 124.3 25.2267C126.07 25.2267 127.187 27.4476 127.187 28.2343C127.187 30.0619 122.856 33.5109 119.248 35.7558C119.115 36.4223 119.049 37.1004 119.051 37.7801C119.051 40.0058 120.234 41.5072 122.005 41.5072C123.381 41.5264 124.824 40.0922 125.873 39.1088V39.1136ZM125.806 28.3015C125.806 27.7786 125.613 27.5819 125.281 27.5819C124.17 27.5819 121.283 30.1339 119.315 34.9067C122.265 32.9592 125.806 29.8221 125.806 28.3015ZM197.176 45.0905C197.436 45.0905 197.566 45.2248 197.566 45.4167C197.566 45.6085 197.239 45.9443 196.123 45.9443C193.101 45.9443 190.219 43.5891 190.219 39.4014C190.219 33.7795 194.347 28.4166 197.629 22.9194C189.955 31.4866 173.226 49.0815 165.946 49.0815C163.651 49.0815 160.5 46.7262 160.5 44.1119C160.5 33.6452 182.343 16.9041 182.343 6.04884C182.348 3.27146 180.448 0.959372 177.166 0.959372C165.359 0.959372 143.713 16.4149 143.713 30.0188C143.713 32.3069 144.959 34.9883 148.043 34.9883C155.52 34.9883 163.786 22.8235 165.557 17.4606C165.624 17.3311 165.691 17.2639 165.821 17.2639C165.951 17.2639 166.081 17.3982 166.081 17.6572C166.053 18.056 165.987 18.4511 165.884 18.8373C164.44 25.4425 157.094 35.7078 148.833 35.7078C144.762 35.7078 140.827 32.7626 140.827 28.7092C140.827 14.9086 164.31 0 175.92 0C182.218 0 185.759 3.99099 185.759 8.63435C185.759 18.6406 164.508 35.3145 164.508 45.5174C164.493 45.7959 164.538 46.0743 164.638 46.3346C164.738 46.5949 164.892 46.8313 165.09 47.0285C165.288 47.2256 165.525 47.3792 165.786 47.4792C166.047 47.5791 166.326 47.6233 166.605 47.6088C173.563 47.6088 190.027 30.9973 198.485 20.2092C201.507 16.3477 205.221 10.0734 205.221 8.11149C205.221 7.84766 205.283 7.71815 205.548 7.71815C205.943 7.71815 208.17 10.0734 208.17 11.5556C208.17 14.9566 193.736 33.7939 193.736 41.7759C193.765 44.3422 195.733 45.1241 197.176 45.1241V45.0905ZM205.307 32.4699C203.667 34.2352 202.223 35.6743 202.223 35.6743C202.094 35.8038 201.964 35.9381 201.896 35.9381C201.828 35.9326 201.764 35.903 201.715 35.8547C201.667 35.8064 201.637 35.7424 201.632 35.6743C201.632 35.4776 201.896 35.1946 202.223 34.8876C202.223 34.8876 203.407 33.6452 205.043 31.8799C204.642 31.0406 204.419 30.1277 204.389 29.1985C204.389 26.7137 207.732 24.0323 208.916 24.0323C209.835 24.0323 211.278 25.5385 211.278 26.3875C211.278 27.3469 207.011 29.069 207.011 31.4866C207.011 33.7795 208.324 34.758 208.849 36.9166C210.946 37.2428 212 37.876 212 38.2262C211.972 38.3873 211.892 38.5351 211.774 38.6482C211.655 38.7612 211.504 38.8335 211.341 38.8546C211.144 38.8546 210.422 38.0727 208.935 37.6793C209.013 38.0454 209.057 38.418 209.065 38.7922C209.065 41.6703 206.178 44.3518 203.032 44.3518C199.885 44.3518 197.061 41.277 197.061 39.5549C197.061 39.0752 197.388 38.7059 198.023 38.4468C200.562 37.6509 203.178 37.1236 205.827 36.8735C205.883 36.6168 205.906 36.354 205.894 36.0916C205.92 34.8699 205.721 33.6538 205.307 32.5035V32.4699ZM198.158 39.7612C198.158 40.4807 199.534 41.4641 201.632 41.4641C203.729 41.4641 205.307 39.5021 205.765 37.4107C202.421 37.6026 199.601 38.8498 198.812 39.1088C198.288 39.3055 198.158 39.5021 198.158 39.7612Z" fill="url(#paint1_linear_174_602)"/>
</g>
<defs>
<linearGradient id="paint0_linear_174_602" x1="113.041" y1="65.9999" x2="113.041" y2="57.4902" gradientUnits="userSpaceOnUse">
<stop offset="0.01" stop-color="#FBC926"/>
<stop offset="0.42" stop-color="#C3922E"/>
<stop offset="0.65" stop-color="#EED688"/>
<stop offset="1" stop-color="#D1AB54"/>
</linearGradient>
<linearGradient id="paint1_linear_174_602" x1="105.998" y1="0" x2="105.998" y2="49.1151" gradientUnits="userSpaceOnUse">
<stop offset="0.01" stop-color="#FBC926"/>
<stop offset="0.42" stop-color="#C3922E"/>
<stop offset="0.65" stop-color="#EED688"/>
<stop offset="1" stop-color="#D1AB54"/>
</linearGradient>
<clipPath id="clip0_174_602">
<rect width="212" height="66" fill="white"/>
</clipPath>
</defs>
</svg>
