<svg width="196" height="61" viewBox="0 0 196 61" fill="none" xmlns="http://www.w3.org/2000/svg">
<path d="M26.0174 28.0461C19.83 31.4909 15.9512 36.0263 15.9512 40.0164C15.9512 42.3706 18.2553 44.1262 22.7435 44.1262C40.0247 44.1262 62.101 28.1658 62.101 11.1236C62.101 6.58812 60.037 1.0862 46.0297 1.0862C26.8047 1.0862 3.70088 14.9319 3.70088 26.2328C3.70088 27.7446 4.48821 28.8308 5.92497 28.8308C12.4549 28.8175 25.2879 20.0658 29.229 11.9083C29.4113 11.5447 29.4736 11.4649 29.5937 11.4649C29.6889 11.4908 29.7717 11.5496 29.8271 11.6309C29.8826 11.7122 29.9071 11.8106 29.8962 11.9083C29.839 12.1846 29.7368 12.4496 29.5937 12.693C25.2879 21.2141 14.3142 29.8594 6.97474 29.8594C3.94108 29.8594 0 28.0461 0 25.386C0 13.5398 25.1055 0 44.8154 0C59.9792 0 65.9798 6.83197 65.9798 13.9033C65.9798 29.4958 40.6919 44.8489 22.7435 44.8489C17.4057 44.8489 12.7974 42.4947 12.7974 38.9879C12.7974 34.3948 18.798 29.2342 26.9871 25.8116C31.6577 15.291 41.4214 3.02362 44.0903 3.02362C44.7576 3.02362 46.092 5.07631 46.092 5.8034C46.092 6.16695 45.8474 6.46842 45.3002 6.7699C40.9944 9.42997 34.1442 16.9225 29.8962 24.721C34.8821 22.9434 40.1298 22.004 45.4248 21.9412C51.5499 21.9412 53.1868 22.9698 53.1868 23.3909C53.1868 23.5727 53.1246 23.6348 53.0623 23.6348C51.2083 22.9757 49.2472 22.6674 47.2797 22.7259C40.9546 22.7386 34.7009 24.058 28.9131 26.6008C27.2762 29.9835 26.2442 33.4283 26.2442 36.514C26.2442 36.9972 26.1864 37.1169 25.9418 37.1169C25.6971 37.1169 24.3671 36.4519 24.3671 35.3657C24.3805 33.3042 24.9854 30.7682 26.0174 28.0461ZM69.1336 26.5343C67.679 25.9313 65.8597 25.2042 65.8597 23.8166C65.8597 21.5998 68.5864 19.5826 69.9832 19.5826C70.8328 19.5826 72.2873 20.7929 72.2873 21.2141C72.2873 22.3624 71.2553 24.1801 69.9832 26.2949C71.8603 27.1816 74.9562 27.7446 74.9562 29.3141C74.9562 31.6106 70.7705 34.878 70.7705 37.1746C70.7522 37.3531 70.7721 37.5334 70.829 37.7037C70.8858 37.8739 70.9782 38.0302 71.1001 38.1622C71.2221 38.2942 71.3707 38.3989 71.5363 38.4694C71.7018 38.5399 71.8805 38.5746 72.0605 38.5711C74.2845 38.5711 80.6721 32.2845 80.6721 32.2845C80.7967 32.1648 80.9168 32.0451 80.979 32.0451C81.1614 32.0451 81.2193 32.2268 81.2193 32.3465C81.2193 32.4662 80.9168 32.7899 80.6721 33.0116C80.6721 33.0116 74.3068 39.5997 71.331 39.5997C69.5117 39.5997 67.5723 38.0302 67.5723 36.3367C67.5723 32.7899 70.7838 29.8682 70.7838 27.9929C70.7838 27.452 70.299 27.1062 69.694 26.787C67.7502 30.4135 64.2939 35.8534 61.4471 38.212C60.7799 38.7529 59.8057 39.3603 58.836 39.3603C58.3912 39.3603 57.9864 39.2982 57.9864 39.1164C57.9864 38.9347 58.5336 38.0302 58.7159 38.0302C58.9372 38.0608 59.1599 38.08 59.3832 38.0879C61.7941 38.079 67.3143 29.9791 69.1336 26.5343ZM70.9529 21.2806C70.4057 21.2806 68.5864 22.5486 68.5864 24.7254C68.5864 25.2707 68.9512 25.6919 69.4983 26.0555C70.468 24.2422 71.3176 22.3668 71.3176 21.5821C71.3086 21.4942 71.2653 21.4134 71.1971 21.357C71.1289 21.3006 71.0412 21.2732 70.9529 21.2806ZM88.4787 26.419C88.4787 27.5052 81.5662 35.2859 81.5662 37.9017C81.5435 38.0364 81.5524 38.1746 81.5921 38.3053C81.6319 38.4361 81.7014 38.5559 81.7953 38.6555C81.8891 38.7551 82.0048 38.8317 82.1333 38.8793C82.2618 38.927 82.3996 38.9444 82.5359 38.9302C85.9921 38.9302 93.0247 32.28 93.0247 32.28C93.0247 32.28 93.2694 32.0406 93.4695 32.0406C93.6697 32.0406 93.7097 32.2224 93.7097 32.28C93.7097 32.4042 93.2249 32.8254 93.0425 33.0071C93.0425 33.0071 85.6452 40.1007 81.7041 40.1007C80.7344 40.1007 78.7906 38.713 78.7906 36.7756C78.7906 34.1155 84.0705 27.4077 85.2226 24.5658C85.405 24.2067 85.6452 23.9629 85.9477 23.9629C87.1442 23.9407 88.4787 25.3239 88.4787 26.4146V26.419ZM94.4837 15.9028C94.2796 16.668 93.8316 17.3464 93.2071 17.8358C92.6526 18.0649 92.087 18.2661 91.5123 18.4388C90.3558 18.8023 89.9955 19.4673 89.7331 19.4673C89.6847 19.4692 89.6364 19.4611 89.5913 19.4435C89.5462 19.4259 89.5052 19.3991 89.471 19.365C89.4367 19.3309 89.4099 19.29 89.3923 19.2451C89.3746 19.2001 89.3664 19.152 89.3683 19.1038C89.3683 17.654 91.6725 14.6304 91.6725 13.1807C91.6697 13.1482 91.6741 13.1154 91.6855 13.0848C91.6969 13.0542 91.7149 13.0264 91.7383 13.0036C91.7616 12.9807 91.7898 12.9633 91.8207 12.9525C91.8516 12.9417 91.8845 12.9379 91.9171 12.9413C92.9046 12.9368 94.4837 15.0738 94.4837 15.8984V15.9028ZM96.303 24.7254C97.1926 24.7254 98.7851 25.9934 98.7851 27.6293C98.7851 30.0456 94.3369 36.4519 94.3369 38.8726C94.335 38.9127 94.3415 38.9527 94.3561 38.9902C94.3706 39.0276 94.3928 39.0616 94.4213 39.09C94.4498 39.1184 94.4839 39.1405 94.5214 39.155C94.559 39.1695 94.5992 39.176 94.6394 39.1741C96.4587 39.1741 105.8 31.1318 105.8 24.1225C105.8 23.0939 105.435 22.5486 105.435 22.1274C105.435 21.9456 105.497 21.8836 105.68 21.8836C106.125 21.8836 107.557 23.3954 107.557 25.151C107.557 32.1027 95.8538 40.3223 94.0344 40.3223C93.2471 40.3223 91.4278 38.9302 91.4278 37.782C91.4278 34.8825 95.7915 27.687 95.7915 25.151C95.8137 24.8274 95.9383 24.721 96.303 24.721V24.7254ZM116.373 36.1504C116.676 35.849 116.858 35.6672 116.978 35.6672C117.041 35.6703 117.101 35.6964 117.146 35.7405C117.191 35.7847 117.219 35.8438 117.223 35.9066C117.223 36.0884 117.04 36.3943 116.618 36.7933C115.403 38.0036 114.007 39.5154 111.52 39.5154C109.034 39.5154 106.792 37.578 106.792 34.4347C106.792 28.9948 112.25 23.3156 114.919 23.3156C116.556 23.3156 117.588 25.3683 117.588 26.0954C117.588 27.7845 113.584 30.9722 110.248 33.047C110.125 33.6631 110.064 34.2898 110.066 34.9179C110.066 36.9751 111.16 38.3627 112.797 38.3627C114.069 38.3805 115.403 37.0549 116.373 36.146V36.1504ZM116.311 26.1574C116.311 25.6742 116.133 25.4924 115.826 25.4924C114.799 25.4924 112.13 27.851 110.31 32.2623C113.037 30.4623 116.311 27.5628 116.311 26.1574ZM182.295 41.6745C182.535 41.6745 182.655 41.7987 182.655 41.976C182.655 42.1534 182.353 42.4637 181.321 42.4637C178.528 42.4637 175.863 40.2869 175.863 36.4165C175.863 31.2204 179.68 26.2638 182.713 21.1831C175.618 29.1012 160.152 45.3632 153.422 45.3632C151.3 45.3632 148.387 43.1864 148.387 40.7701C148.387 31.0963 168.581 15.6235 168.581 5.5906C168.586 3.02362 166.829 0.886692 163.795 0.886692C152.879 0.886692 132.867 15.1713 132.867 27.7446C132.867 29.8594 134.019 32.3377 136.87 32.3377C143.783 32.3377 151.425 21.0944 153.062 16.1378C153.124 16.0181 153.186 15.956 153.306 15.956C153.426 15.956 153.547 16.0802 153.547 16.3196C153.521 16.6881 153.46 17.0533 153.364 17.4102C152.03 23.5151 145.237 33.0027 137.6 33.0027C133.837 33.0027 130.198 30.2805 130.198 26.5343C130.198 13.7792 151.91 0 162.643 0C168.466 0 171.74 3.68864 171.74 7.98023C171.74 17.2284 152.092 32.6391 152.092 42.0691C152.079 42.3265 152.12 42.5838 152.212 42.8244C152.305 43.065 152.447 43.2835 152.63 43.4657C152.813 43.6479 153.032 43.7899 153.274 43.8823C153.515 43.9747 153.773 44.0155 154.031 44.0021C160.464 44.0021 175.685 28.649 183.505 18.6782C186.299 15.1092 189.733 9.31027 189.733 7.49698C189.733 7.25314 189.79 7.13344 190.035 7.13344C190.4 7.13344 192.459 9.31027 192.459 10.6802C192.459 13.8235 179.115 31.2337 179.115 38.611C179.141 40.9829 180.961 41.7056 182.295 41.7056V41.6745ZM189.813 30.0101C188.296 31.6416 186.961 32.9717 186.961 32.9717C186.841 33.0914 186.721 33.2155 186.659 33.2155C186.596 33.2104 186.536 33.1831 186.491 33.1384C186.447 33.0938 186.419 33.0346 186.414 32.9717C186.414 32.7899 186.659 32.5283 186.961 32.2446C186.961 32.2446 188.056 31.0963 189.568 29.4648C189.197 28.689 188.991 27.8453 188.963 26.9865C188.963 24.6899 192.054 22.2116 193.149 22.2116C193.998 22.2116 195.333 23.6038 195.333 24.3885C195.333 25.2752 191.387 26.8668 191.387 29.1012C191.387 31.2204 192.602 32.1249 193.086 34.1199C195.026 34.4214 196 35.0066 196 35.3303C195.974 35.4792 195.9 35.6158 195.791 35.7203C195.681 35.8247 195.541 35.8916 195.391 35.911C195.208 35.911 194.541 35.1884 193.167 34.8248C193.239 35.1632 193.279 35.5076 193.287 35.8534C193.287 38.5135 190.618 40.9918 187.709 40.9918C184.799 40.9918 182.188 38.1499 182.188 36.5583C182.188 36.115 182.491 35.7736 183.078 35.5342C185.425 34.7986 187.843 34.3112 190.293 34.08C190.345 33.8428 190.366 33.5999 190.355 33.3574C190.379 32.2282 190.195 31.1042 189.813 30.0411V30.0101ZM183.203 36.749C183.203 37.414 184.475 38.3228 186.414 38.3228C188.354 38.3228 189.813 36.5096 190.235 34.5766C187.144 34.7539 184.537 35.9066 183.808 36.146C183.323 36.3278 183.203 36.5096 183.203 36.749Z" fill="url(#paint0_linear_150_285)"/>
<defs>
<linearGradient id="paint0_linear_150_285" x1="97.9978" y1="0" x2="97.9978" y2="45.3942" gradientUnits="userSpaceOnUse">
<stop offset="0.01" stop-color="#FBC926"/>
<stop offset="0.42" stop-color="#C3922E"/>
<stop offset="0.65" stop-color="#EED688"/>
<stop offset="1" stop-color="#D1AB54"/>
</linearGradient>
</defs>
</svg>
